<mxfile host="Electron" agent="Mozilla/5.0 (Windows NT 10.0; Win64; x64) AppleWebKit/537.36 (KHTML, like Gecko) draw.io/25.0.2 Chrome/128.0.6613.186 Electron/32.2.5 Safari/537.36" version="25.0.2">
  <diagram name="PÃ¡gina-1" id="U8dXFah_-mKcLjixD_s1">
    <mxGraphModel dx="1434" dy="884" grid="1" gridSize="10" guides="1" tooltips="1" connect="1" arrows="1" fold="1" page="1" pageScale="1" pageWidth="1169" pageHeight="827" math="0" shadow="0">
      <root>
        <mxCell id="0" />
        <mxCell id="1" parent="0" />
        <mxCell id="zsoF0UaB6W0mCMv4MTz0-1" value="" style="html=1;rounded=0;" vertex="1" parent="1">
          <mxGeometry x="250" y="330" width="30" height="30" as="geometry" />
        </mxCell>
        <mxCell id="zsoF0UaB6W0mCMv4MTz0-2" value="" style="endArrow=none;html=1;rounded=0;align=center;verticalAlign=top;endFill=0;labelBackgroundColor=none;endSize=2;" edge="1" source="zsoF0UaB6W0mCMv4MTz0-1" target="zsoF0UaB6W0mCMv4MTz0-3" parent="1">
          <mxGeometry relative="1" as="geometry" />
        </mxCell>
        <mxCell id="zsoF0UaB6W0mCMv4MTz0-3" value="" style="ellipse;html=1;fontSize=11;align=center;fillColor=none;points=[];aspect=fixed;resizable=0;verticalAlign=bottom;labelPosition=center;verticalLabelPosition=top;flipH=1;" vertex="1" parent="1">
          <mxGeometry x="302" y="341" width="8" height="8" as="geometry" />
        </mxCell>
        <mxCell id="zsoF0UaB6W0mCMv4MTz0-4" value="" style="html=1;rounded=0;" vertex="1" parent="1">
          <mxGeometry x="250" y="399" width="30" height="30" as="geometry" />
        </mxCell>
        <mxCell id="zsoF0UaB6W0mCMv4MTz0-5" value="" style="endArrow=none;html=1;rounded=0;align=center;verticalAlign=top;endFill=0;labelBackgroundColor=none;endSize=2;" edge="1" source="zsoF0UaB6W0mCMv4MTz0-4" target="zsoF0UaB6W0mCMv4MTz0-6" parent="1">
          <mxGeometry relative="1" as="geometry" />
        </mxCell>
        <mxCell id="zsoF0UaB6W0mCMv4MTz0-6" value="" style="shape=requiredInterface;html=1;fontSize=11;align=center;fillColor=none;points=[];aspect=fixed;resizable=0;verticalAlign=bottom;labelPosition=center;verticalLabelPosition=top;flipH=1;" vertex="1" parent="1">
          <mxGeometry x="305" y="409" width="5" height="10" as="geometry" />
        </mxCell>
        <mxCell id="zsoF0UaB6W0mCMv4MTz0-7" value="Diagram Heading" style="shape=umlFrame;whiteSpace=wrap;html=1;pointerEvents=0;recursiveResize=0;container=1;collapsible=0;width=160;" vertex="1" parent="1">
          <mxGeometry x="40" y="120" width="1080" height="680" as="geometry" />
        </mxCell>
      </root>
    </mxGraphModel>
  </diagram>
</mxfile>
